# xmcd CD database file
#
# Track frame offsets:
#	150
#	14108
#	28198
#	45825
#	59758
#	83921
#	106520
#	121558
#	137183
#	152704
#	171318
#	200268
#	217516
#	237539
#	257039
#	273973
#	295498
#	303799
#
# Disc length: 4369 seconds
#
# Revision: 0
# Processed by: cddbd v1.5.2PL0 Copyright (c) Steve Scherf et al.
# Submitted via: CDex 1.70beta2
#
DISCID=f6110f12
DTITLE=Face It - Adonai Elohenu
DYEAR=2003
DGENRE=Salsa
TTITLE0=Adonai Elohenu
TTITLE1=Don't Worry
TTITLE2=My Saviour
TTITLE3=Kinderen Van God
TTITLE4=Als Je Gelooft
TTITLE5=I Believe In Jesus
TTITLE6=Cristo Salva
TTITLE7=Religieuze
TTITLE8=Noe
TTITLE9=Viene Jesus
TTITLE10=Quierele
TTITLE11=Jesus Paradise
TTITLE12=Son OF God
TTITLE13=He's Coming
TTITLE14=Jesus Lives
TTITLE15=Jesus I Love You
TTITLE16=Mamai
TTITLE17=bonus track: Si Bo Kere
EXTD=YEAR: 2003
EXTT0=
EXTT1=
EXTT2=
EXTT3=
EXTT4=
EXTT5=
EXTT6=
EXTT7=
EXTT8=
EXTT9=
EXTT10=
EXTT11=
EXTT12=
EXTT13=
EXTT14=
EXTT15=
EXTT16=
EXTT17=
PLAYORDER=
